<svg xmlns="http://www.w3.org/2000/svg" viewBox="0 0 211.82 110.63"><defs><style>.cls-1{fill:#fff;}.cls-2,.cls-26,.cls-27,.cls-30{fill:none;stroke-miterlimit:10;}.cls-2{stroke:#0561fc;}.cls-2,.cls-26,.cls-27{stroke-width:0.49px;}.cls-3{fill:#0561fc;}.cls-4{fill:#9ac7f7;}.cls-5{fill:#fbd260;}.cls-6{fill:#eaf4fe;}.cls-7{fill:#367082;}.cls-8{fill:#88bdda;}.cls-9{fill:#acd5f4;}.cls-10{fill:#001f46;}.cls-11{fill:#8dcfff;}.cls-12{fill:#7dc2f5;}.cls-13{fill:#c5e1f9;}.cls-14{fill:#f7b68b;}.cls-15{fill:#ec9568;}.cls-16{fill:#212a54;}.cls-17{fill:#281617;}.cls-18{fill:#3b47bc;}.cls-19{fill:#d0dee6;}.cls-20{fill:#b6c2c9;}.cls-21{fill:#d7dfe2;}.cls-22{fill:#163f59;}.cls-23{fill:#212957;}.cls-24{fill:#387bff;}.cls-25{fill:#7eb3ff;}.cls-26{stroke:#c5e1f9;}.cls-27{stroke:#9ac7f7;}.cls-28{fill:#0450cf;}.cls-29{fill:#003e99;}.cls-30{stroke:#7dc2f5;stroke-width:0.6px;}.cls-31{fill:#f8c44f;}.cls-32{fill:#ffd917;}.cls-33{fill:#2c7eea;}</style></defs><g id="Layer_2" data-name="Layer 2"><g id="Layer_4" data-name="Layer 4"><rect class="cls-1" x="42.89" y="0.46" width="59.31" height="39.49"/><polygon class="cls-2" points="102.21 39.95 42.89 39.95 42.89 0.46 102.21 39.95"/><rect class="cls-3" x="42.89" y="0.46" width="59.31" height="4.41"/><path class="cls-4" d="M46.13,2.66a.89.89,0,1,1-1.77,0,.89.89,0,0,1,1.77,0Z"/><path class="cls-5" d="M48.92,2.66A.88.88,0,1,1,48,1.78.88.88,0,0,1,48.92,2.66Z"/><path class="cls-6" d="M51.72,2.66a.89.89,0,1,1-1.77,0,.89.89,0,0,1,1.77,0Z"/><path class="cls-2" d="M58.66,12h0Z"/><polygon class="cls-2" points="49.24 12.16 50.38 13.3 53.71 9.97 49.24 12.16"/><path class="cls-2" d="M58.66,18.34h0Z"/><polygon class="cls-2" points="49.24 18.5 50.38 19.64 53.71 16.31 49.24 18.5"/><path class="cls-2" d="M58.66,24.67h0Z"/><polygon class="cls-2" points="49.24 24.84 50.38 25.97 53.71 22.64 49.24 24.84"/><path class="cls-4" d="M21.79,32S35,37.45,37.85,40.79s8,7,6.66,9.26-4.66,3.09-5.61,2.49S22.51,44.78,21.79,32Z"/><path class="cls-7" d="M9.66,85.1a4.9,4.9,0,0,1-3.25-1.18C4.77,82.5,4.07,80,4.3,76.41A26.15,26.15,0,0,1,6.41,69C8.1,64.65,10,59.74,9,53.23L10.87,53c1.08,7-1,12.39-2.7,16.72a24.53,24.53,0,0,0-2,6.86c-.19,2.89.31,5,1.44,6a3.15,3.15,0,0,0,2.49.7L10.49,85A5.29,5.29,0,0,1,9.66,85.1Z"/><path class="cls-8" d="M24.07,100l1.83,2.79-15.37,4.92s-1-1,2.74-3C17.66,102.47,24.07,100,24.07,100Z"/><path class="cls-8" d="M26.8,100,25,102.8l15.37,4.92s1-1-2.75-3C33.2,102.47,26.8,100,26.8,100Z"/><rect class="cls-8" x="23.83" y="91.71" width="3.21" height="11.44"/><path class="cls-9" d="M23.86,100.6l1.57,2.66L12.27,108s-.88-.94,2.35-2.82C18.38,103,23.86,100.6,23.86,100.6Z"/><path class="cls-9" d="M27,100.6l-1.56,2.66L38.6,108s.87-.94-2.35-2.82C32.49,103,27,100.6,27,100.6Z"/><path class="cls-10" d="M13.76,109a1.12,1.12,0,1,1-1.11-1.12A1.11,1.11,0,0,1,13.76,109Z"/><path class="cls-10" d="M39.26,109a1.12,1.12,0,1,1-1.12-1.12A1.12,1.12,0,0,1,39.26,109Z"/><path class="cls-7" d="M11.06,109a1.12,1.12,0,1,1-1.12-1.12A1.12,1.12,0,0,1,11.06,109Z"/><path class="cls-7" d="M42,109a1.12,1.12,0,1,1-1.12-1.12A1.12,1.12,0,0,1,42,109Z"/><rect class="cls-7" x="24.22" y="87.51" width="2.35" height="4.11"/><path class="cls-7" d="M28.33,85.34A2.29,2.29,0,0,1,26,87.63H24.75a2.28,2.28,0,0,1-2.29-2.29h0a2.28,2.28,0,0,1,2.29-2.29H26a2.29,2.29,0,0,1,2.29,2.29Z"/><path class="cls-11" d="M42.86,83.25c0-.27.08-2,.08-2.26,0-1.84-1.19-3.34-2.67-3.34H10.51C9,77.65,7.84,79.15,7.84,81c0,.3,0,2,.09,2.26Z"/><path class="cls-7" d="M7.57,84.15c0,.57.33,1,.74,1H42.48c.41,0,.74-.46.74-1h0c0-.56-.33-1-.74-1H8.31c-.41,0-.74.46-.74,1Z"/><path class="cls-11" d="M9.23,66.06c.74.06,5.4.14,6.21.15,5.1.06,9.5-.9,9.75-2.16a43.76,43.76,0,0,0,.13-15.81C25.1,47,20.64,46,15.42,46.09c-.82,0-5.58.09-6.33.15A42.69,42.69,0,0,1,9.23,66.06Z"/><path class="cls-7" d="M8.53,46.24c-.57,0-1,.27-.89.6A42.7,42.7,0,0,1,7.8,65.46c-.07.33.32.6.88.61h0c.56,0,1.08-.26,1.15-.59a42.88,42.88,0,0,0-.12-18.66c-.08-.33-.6-.59-1.18-.58Z"/><path class="cls-12" d="M8.3,66.05a11.75,11.75,0,0,0,1.34.09,2.68,2.68,0,0,0,2.48-2.2,42.72,42.72,0,0,0-.07-15.58,2.74,2.74,0,0,0-2.54-2.2,11.94,11.94,0,0,0-1.36.09A42.74,42.74,0,0,1,8.3,66.05Z"/><path class="cls-13" d="M16,74.48S8.84,75.73,7.28,61.72s-2-25.2-2-25.2l8.87-4.67h7.78s5.17,3.42,5.79,6.53-.19,14.32.74,16.5,4.36,9.33,4.36,9.33Z"/><path class="cls-14" d="M21.9,53.42l5.63-4.29,1-.78s2,2.73,1.26,4.62-6.26,3.34-7.2,3.22S21.9,53.42,21.9,53.42Z"/><polygon class="cls-15" points="32.01 49 31.69 53.06 29.23 53.93 28.56 48.35 32.01 49"/><path class="cls-15" d="M38.92,48.63s3.7-.62,4.5.17c.56.56.14,3.18.14,3.18s-4.17.51-4.7,0S35.93,49.78,38.92,48.63Z"/><path class="cls-4" d="M9.71,39.54s-3.27-4.4-4.47-3.11S-.44,51.58,0,55.93s.9,7.68,4,7.79c10.91.38,19.23-6.15,19.23-6.15l-1-6.35S9.87,52.45,9,53.42,9.57,44.21,9.71,39.54Z"/><path class="cls-16" d="M15.3,16.58s3.69.42,4.89-.95-2.21-1-.71,0,5-.66,4.11-2.39-2.27-2.52-3.69-1.56-.3,1.56.25.6-1.49-3.4-3.37-.07-.92,3.63-.25,1.4-.7-3.68-1.84-1.08.45,4,.89,2.79-2.94-3.76-3.27-1.51-.63,4.93,1.08,5-2.11-5.93-3.81-1.15,1.48,3.4,1.63,2.32-5.78.76-1.27,2.48,2.86-.27,3.28-1.36-3.9,1.69-1.68,4.1,4.42,2,4-.43-3-1.26-2.24.8a2.6,2.6,0,0,1-1,3.42c-.49.19,3.1,1.8,3.86-.13S18.19,17.37,15.3,16.58Z"/><path class="cls-14" d="M22.88,18.79l.05-1-2-2.78s-.19.9-3.6,1.25c-5.07.53-.68,2-.49,4.2a3.17,3.17,0,0,1-.54,2.44,17.42,17.42,0,0,0,3.66,4.75l0-.08,2.16.91C24.27,29.37,24,27,24,27l-.25-4.32.86-1.39Z"/><path class="cls-14" d="M22.88,18.79l.05-1-2-2.78s-.19.9-3.6,1.25c-5.07.53-.68,2-.49,4.2s-.9,3.28-1.46,2.24-2.3-1.56-3.14-.52,1.53,3,2.06,3.23a1.28,1.28,0,0,0,.92.11s-1.94,5.33-2.94,8a12.53,12.53,0,0,0,6.43,0A49.24,49.24,0,0,1,20,27.54l2.16.91C24.27,29.37,24,27,24,27l-.25-4.32.86-1.39Z"/><path class="cls-17" d="M38.85,107,38,110.11H48.61s-2.91-3.94-5.4-4.56A4.78,4.78,0,0,0,38.85,107Z"/><path class="cls-17" d="M32.42,67.38s16.6-3.53,21-3.32S59,64.68,59,68s-1.87,38.17-1.87,38.17l-7.26.62s-.83-25.31,0-28.21l.83-2.91L30.56,79.82Z"/><path class="cls-18" d="M12.92,73a14.79,14.79,0,0,1,11.21-8.72c8.71-1.66,10-.83,10-.83l11,42.53-7.68,2.49L26.2,78.37S11.89,84.18,12.92,73Z"/><path class="cls-17" d="M52.13,105.13l-.41,4.77H66.45S56.49,104.51,52.13,105.13Z"/><path class="cls-19" d="M36.43,51l0,0,0-.83H70.74V51a0,0,0,0,1,0,0l-.08.16a2.26,2.26,0,0,1-2.14.85H38.65a2.24,2.24,0,0,1-2.13-.85Z"/><path class="cls-20" d="M44.7,51.14v0l-.09.12a1.27,1.27,0,0,1-.5.42H38.89a2.36,2.36,0,0,1-2-.68l-.09-.13v-.43h8Z"/><rect class="cls-20" x="49.33" y="50.34" width="17.15" height="0.59"/><path class="cls-21" d="M44.89,50.12l4.45-16.86a1.11,1.11,0,0,1,1-.81H74.43a.6.6,0,0,1,.59.81L70.57,50.12Z"/><path class="cls-20" d="M58.5,41.28a1.17,1.17,0,0,0,1.15,1.56,2.18,2.18,0,0,0,2-1.56,1.16,1.16,0,0,0-1.15-1.56A2.18,2.18,0,0,0,58.5,41.28Z"/><polygon class="cls-22" points="116.8 109.93 120.31 109.93 114.52 53.81 109.42 53.81 116.8 109.93"/><polygon class="cls-23" points="109.76 56.39 112 73.39 114.65 55.07 114.52 53.81 110.06 53.81 109.76 56.39"/><polygon class="cls-22" points="69.74 109.93 73.25 109.93 67.46 53.81 62.36 53.81 69.74 109.93"/><polygon class="cls-23" points="62.7 56.39 64.94 73.39 67.59 55.07 67.46 53.81 63.01 53.81 62.7 56.39"/><polygon class="cls-22" points="32.86 109.93 29.35 109.93 35.14 53.81 40.24 53.81 32.86 109.93"/><polygon class="cls-23" points="39.9 56.39 33.08 73.71 35.01 55.07 35.14 53.81 39.6 53.81 39.9 56.39"/><rect class="cls-24" x="30.23" y="51.98" width="42.35" height="3.28"/><rect class="cls-25" x="70.62" y="51.98" width="48.09" height="3.28"/><polygon class="cls-2" points="99.39 21.75 105.24 21.75 108.7 33.45 124.08 33.45 99.39 21.75"/><polygon class="cls-4" points="122.34 32.8 109.04 32.8 106.11 23.7 125.28 23.7 122.34 32.8"/><path class="cls-4" d="M112.6,36.7A1.63,1.63,0,1,1,111,35.07,1.63,1.63,0,0,1,112.6,36.7Z"/><path class="cls-4" d="M121.05,36.7a1.63,1.63,0,1,1-1.62-1.63A1.63,1.63,0,0,1,121.05,36.7Z"/><polygon class="cls-13" points="152.98 26.54 152.98 14.1 142.2 14.1 131.43 14.1 131.43 26.54 142.2 26.54 152.98 26.54"/><polygon class="cls-4" points="152.98 26.54 152.98 14.1 142.2 20.97 131.43 14.1 131.43 26.54 142.2 26.54 152.98 26.54"/><polygon class="cls-25" points="152.98 16.04 152.98 14.1 142.2 20.97 152.98 16.04"/><rect class="cls-2" x="119.42" y="12.33" width="4.87" height="4.87" transform="translate(46.13 -81.84) rotate(45)"/><rect class="cls-13" x="145.96" y="22.4" width="29.36" height="14.51" rx="5.28"/><polygon class="cls-13" points="153.08 39.77 153.08 34.36 158.97 34.36 153.08 39.77"/><path class="cls-2" d="M153.32,27.58h0Z"/><path class="cls-2" d="M153.32,29.7h0Z"/><path class="cls-2" d="M153.32,31.82h0Z"/><rect class="cls-3" x="168.49" y="10.05" width="14.51" height="8.23" rx="1.6"/><path class="cls-23" d="M183,11.57H168.5s0,0,0,.08V13.3H183V11.65S183,11.6,183,11.57Z"/><path class="cls-26" d="M176.29,15.9h0Z"/><path class="cls-27" d="M191.56,29.44V25.32a2.16,2.16,0,0,1,2.16-2.16h4.68a2.16,2.16,0,0,1,2.15,2.16v4.12Z"/><rect class="cls-11" x="185.39" y="28.36" width="26.43" height="17.33"/><rect class="cls-3" x="185.39" y="28.36" width="5.24" height="17.33"/><rect class="cls-28" x="185.39" y="28.36" width="2.39" height="17.33"/><polygon class="cls-29" points="190.63 45.69 185.39 45.69 187.88 43.74 190.63 45.69"/><path class="cls-2" d="M197.3,29.44V25.32a2.16,2.16,0,0,1,2.16-2.16h4.68a2.16,2.16,0,0,1,2.15,2.16v4.12Z"/><path class="cls-11" d="M99.94,103s1.4-5,3.61-6.71,3.8-4.1,6.71-5.21,3.6-3.1,2.5-3.8-4.71-2.71-9.11,1.9-5.51,8.21-5.41,12.52S99.74,105.46,99.94,103Z"/><path class="cls-30" d="M111.16,88s-4.41,1.3-6.41,2.8-5.71,5.71-5.91,9.81Z"/><path class="cls-31" d="M98.74,104.55s-2.27-6.41-3.2-8.41-.81-6.81.66-8.68,3.88-4.67,2.81-8.81-.54-6.68,1.47-5.08a14.15,14.15,0,0,1,5.6,10.82c.07,4.34-1.21,6.88-3.6,10C100.54,96.94,98.61,101.62,98.74,104.55Z"/><path class="cls-32" d="M97.84,103.06c0-.27-1.2-6.51,0-9.14.28-.6.65-1.33,1-2.11,1.29-2.54,3.06-6,3.25-8.44.29-3.89-2.15-7.65-2.18-7.68l.34-.22a14.38,14.38,0,0,1,2.24,7.93c-.19,2.51-1.91,5.88-3.29,8.6-.39.77-.76,1.49-1,2.09-1.16,2.51,0,8.83,0,8.89Z"/><path class="cls-4" d="M89.83,95c-2.61-.5-2.81-3.51-.8-4.11s5.3-.5,6.91,1.61c1.85,2.43,2.6,6.81,2,9.91s0-1.2-1.3-3.3S92,95.45,89.83,95Z"/><path class="cls-2" d="M88.63,92.6a7.46,7.46,0,0,1,6.1,1.71,12.26,12.26,0,0,1,3.51,7.34Z"/><polygon class="cls-33" points="103.05 110.63 95.84 110.63 94.63 99.01 104.25 99.01 103.05 110.63"/></g></g></svg>