<?xml version="1.0" encoding="iso-8859-1"?>
<!-- Generator: Adobe Illustrator 20.0.0, SVG Export Plug-In . SVG Version: 6.00 Build 0)  -->
<svg version="1.1" xmlns="http://www.w3.org/2000/svg" xmlns:xlink="http://www.w3.org/1999/xlink" x="0px" y="0px"
	 viewBox="0 0 44 44" style="enable-background:new 0 0 44 44;" xml:space="preserve">
<g id="Layer_21">
</g>
<g id="Layer_20">
	<g>
		<path d="M1,17.7c0.552,0,1-0.447,1-1c0-2.461,1.477-4.645,3.762-5.563c0.303-0.122,0.527-0.384,0.601-0.701
			C6.998,7.706,9.398,5.8,12.2,5.8c0.539,0,1.089,0.078,1.635,0.232c0.415,0.117,0.857-0.044,1.1-0.399
			C16.055,3.984,17.912,3,19.9,3c0.614,0,1.218,0.092,1.797,0.274c0.525,0.166,1.088-0.127,1.254-0.654
			c0.166-0.526-0.127-1.088-0.654-1.254C21.524,1.123,20.717,1,19.9,1c-2.417,0-4.687,1.09-6.2,2.946
			c-0.5-0.098-1.002-0.146-1.5-0.146c-3.565,0-6.643,2.314-7.654,5.688C1.768,10.812,0,13.59,0,16.7C0,17.253,0.448,17.7,1,17.7z"/>
		<path d="M10.45,30.4C5.791,30.4,2,27.395,2,23.7c0-1.004,0.285-1.979,0.846-2.898C4.277,18.457,7.191,17,10.45,17
			c0.552,0,1-0.447,1-1s-0.448-1-1-1c-3.951,0-7.519,1.823-9.311,4.759C0.383,20.997,0,22.322,0,23.7c0,4.797,4.688,8.7,10.45,8.7
			c0.552,0,1-0.447,1-1S11.002,30.4,10.45,30.4z"/>
		<path d="M37.332,7.014C35.768,4.196,32.685,2.4,29.35,2.4c-1.61,0-3.201,0.42-4.6,1.215C22.005,5.177,20.3,8.045,20.3,11.1
			c0,0.388-0.949,1.101-2.5,1.101c-0.552,0-1,0.447-1,1s0.448,1,1,1c1.437,0,2.682-0.451,3.5-1.153
			c0.818,0.702,2.063,1.153,3.5,1.153c0.552,0,1-0.447,1-1s-0.448-1-1-1c-1.551,0-2.5-0.713-2.5-1.101
			c0-2.373,1.286-4.521,3.439-5.746C26.837,4.73,28.085,4.4,29.35,4.4c2.734,0,5.245,1.53,6.396,3.898
			c0.129,0.266,0.37,0.461,0.656,0.532C39.698,9.657,42,12.604,42,16c0,0.299-0.018,0.593-0.052,0.882
			c-0.065,0.549,0.327,1.046,0.875,1.111c0.04,0.005,0.08,0.007,0.12,0.007c0.499,0,0.931-0.374,0.992-0.882
			C43.978,16.751,44,16.379,44,16C44,11.84,41.281,8.208,37.332,7.014z"/>
		<path d="M20.2,22.3c0-1.765,1.436-3.2,3.2-3.2c0.552,0,1-0.447,1-1s-0.448-1-1-1c-2.867,0-5.2,2.333-5.2,5.2c0,0.553,0.448,1,1,1
			S20.2,22.853,20.2,22.3z"/>
		<path d="M30.4,23.3c0.552,0,1-0.447,1-1s-0.448-1-1-1c-2.095,0-3.8,1.705-3.8,3.8c0,3.694-3.163,6.7-7.05,6.7
			c-1.768,0-3.458-0.624-4.761-1.758C13.334,28.775,12.5,26.974,12.5,25.1c0-0.553-0.448-1-1-1s-1,0.447-1,1
			c0,2.453,1.084,4.804,2.976,6.45c1.667,1.451,3.824,2.25,6.074,2.25c4.99,0,9.05-3.903,9.05-8.7
			C28.6,24.107,29.408,23.3,30.4,23.3z"/>
		<path d="M33.2,15c-0.552,0-1,0.447-1,1s0.448,1,1,1c3.086,0,5.795,1.865,6.903,4.752c0.33,0.86,0.497,1.751,0.497,2.648
			c0,4.287-2.818,7.399-6.7,7.399c-0.047,0-4.93,0.098-7.347,1.306C26.214,33.275,26,33.621,26,34c0,1.704,1.636,7.133,2.042,7.85
			C28.693,43,29.74,43,31.825,43c0.495,0,4.867-0.05,5.93-1.776c0.304-0.492,0.326-1.076,0.092-1.533l-1.265-3.07
			c-0.211-0.511-0.796-0.753-1.306-0.544c-0.511,0.211-0.754,0.795-0.544,1.306l1.193,2.888C35.432,40.576,33.912,41,31.825,41
			c-0.589,0-1.816,0-2.033-0.119c-0.286-0.578-1.443-4.422-1.728-6.241c1.959-0.678,5.242-0.84,5.836-0.84
			c5.041,0,8.7-3.953,8.7-9.399c0-1.144-0.212-2.275-0.63-3.365C40.585,17.426,37.061,15,33.2,15z"/>
	</g>
</g>
<g id="Layer_19">
</g>
<g id="Layer_18">
</g>
<g id="Layer_17">
</g>
<g id="Layer_16">
</g>
<g id="Layer_15">
</g>
<g id="Layer_14">
</g>
<g id="Layer_13">
</g>
<g id="Layer_12">
</g>
<g id="Layer_11">
</g>
<g id="Layer_10">
</g>
<g id="Layer_9">
</g>
<g id="Layer_8">
</g>
<g id="Layer_7">
</g>
<g id="Layer_6">
</g>
<g id="Layer_5">
</g>
<g id="Layer_4">
</g>
<g id="Layer_3">
</g>
<g id="Layer_2">
</g>
</svg>
