<svg xmlns="http://www.w3.org/2000/svg" viewBox="0 0 150.41 124.82"><defs><style>.cls-1,.cls-11{fill:#fff;}.cls-13,.cls-2,.cls-4{fill:none;}.cls-10,.cls-2{stroke:#7eb3ff;}.cls-10,.cls-11,.cls-13,.cls-2,.cls-4{stroke-miterlimit:10;}.cls-10,.cls-2,.cls-4{stroke-width:0.38px;}.cls-10,.cls-3{fill:#c5e1f9;}.cls-11,.cls-13,.cls-4{stroke:#0561fc;}.cls-5{fill:#f7b68b;}.cls-6{fill:#3b47bc;}.cls-7{fill:#7eb3ff;}.cls-8{fill:#281617;}.cls-9{fill:#ec9568;}.cls-11,.cls-13{stroke-width:0.43px;}.cls-12{fill:#e9f6ff;}.cls-14{fill:#0561fc;}.cls-15{fill:#212957;}.cls-16{fill:#9ac7f7;}</style></defs><g id="Layer_2" data-name="Layer 2"><g id="Layer_4" data-name="Layer 4"><rect class="cls-1" x="33.13" y="0.19" width="78.16" height="92.94"/><path class="cls-2" d="M46.91,10.8v0Z"/><rect class="cls-3" x="45.5" y="11.49" width="2.83" height="6.79"/><path class="cls-2" d="M52.57,10.8v0Z"/><rect class="cls-3" x="51.15" y="17.02" width="2.83" height="6.79"/><path class="cls-2" d="M58.22,10.8v0Z"/><rect class="cls-3" x="56.81" y="20.56" width="2.83" height="6.79"/><path class="cls-2" d="M63.88,10.8v0Z"/><rect class="cls-3" x="62.47" y="17.02" width="2.83" height="6.79"/><path class="cls-2" d="M69.54,10.8v0Z"/><rect class="cls-3" x="68.12" y="15.04" width="2.83" height="6.79"/><path class="cls-2" d="M75.19,10.8v0Z"/><rect class="cls-3" x="73.78" y="17.02" width="2.83" height="6.79"/><path class="cls-2" d="M105.87,36.38h0Z"/><rect class="cls-4" x="45.4" y="33.61" width="32.05" height="12.25"/><path class="cls-4" d="M45.4,36.81h0Z"/><path class="cls-4" d="M47.67,35.28a.4.4,0,0,1-.4.4.4.4,0,0,1,0-.8A.4.4,0,0,1,47.67,35.28Z"/><path class="cls-4" d="M49.69,35.28a.4.4,0,1,1-.4-.4A.4.4,0,0,1,49.69,35.28Z"/><path class="cls-4" d="M51.72,35.28a.4.4,0,1,1-.4-.4A.4.4,0,0,1,51.72,35.28Z"/><path class="cls-4" d="M48.26,39.43h0Z"/><path class="cls-4" d="M48.26,41.41h0Z"/><path class="cls-4" d="M48.26,43.39h0Z"/><rect class="cls-2" x="33.13" y="0.19" width="78.16" height="92.94"/><path class="cls-2" d="M33.13,4.77h0Z"/><path class="cls-2" d="M36.36,2.58A.58.58,0,1,1,35.78,2,.57.57,0,0,1,36.36,2.58Z"/><path class="cls-2" d="M39.25,2.58A.58.58,0,1,1,38.68,2,.57.57,0,0,1,39.25,2.58Z"/><path class="cls-2" d="M42.14,2.58a.57.57,0,0,1-.57.57.57.57,0,0,1,0-1.14A.57.57,0,0,1,42.14,2.58Z"/><path class="cls-2" d="M85,36.38a.56.56,0,0,1-.57.57.57.57,0,0,1-.57-.57.58.58,0,0,1,.57-.57A.57.57,0,0,1,85,36.38Z"/><path class="cls-2" d="M105.87,40.62h0Z"/><path class="cls-2" d="M85,40.62a.57.57,0,0,1-.57.58.58.58,0,0,1,0-1.15A.57.57,0,0,1,85,40.62Z"/><path class="cls-2" d="M105.87,44.87h0Z"/><path class="cls-2" d="M85,44.87a.57.57,0,0,1-.57.57.58.58,0,1,1,.57-.57Z"/><path class="cls-5" d="M45.27,22.62a27.41,27.41,0,0,1,2.62-2.82c1-.68,1.09-1,1.33-1.13.87-.42,1.5-.33,1,0s1.16-.51,1.38-.49c.52.05-1.18,1.22-.93,1.22.08,0,1.79-1,1.85-1,.73.34-.25.73.23.67.64-.1-.19.73-1,1.48-.28.25-.66.56-.92.75a3.53,3.53,0,0,0-1.25,2.16s1.54-.93,1.74-.48c.07.16-1.52,1.37-1.84,1.66s-3.41.35-3.41.35Z"/><path class="cls-5" d="M48.4,50.82A25.5,25.5,0,0,0,52,49.35c1-.65,1.33-.66,1.52-.84.7-.68.83-1.29.33-.95s.89-.91.94-1.12c.14-.5-1.55.68-1.46.45,0-.07,1.54-1.33,1.54-1.41-.07-.8-.78,0-.54-.45s-.76-.08-1.76.45c-.33.18-.75.42-1,.6a3.47,3.47,0,0,1-2.46.41s1.4-1.11,1-1.46a12.81,12.81,0,0,0-2.2,1.15c-.38.19-1.51,3.07-1.51,3.07Z"/><path class="cls-6" d="M31.27,35l14-11.88,2.64,2.27L34.09,44.26S30.51,36.15,31.27,35Z"/><path class="cls-3" d="M116.44,122c-10.55.12-43.24.61-63.08,2.06-36.79,2.68-66.84-1.75-47.1-6.82,5.51-1.42-10.4-9.91,28.55-11.83,34.18-1.68,69,1.92,85.9,3.46s24.65,4.3,28.26,5.53C152.15,115.44,153.32,121.55,116.44,122Z"/><polygon class="cls-7" points="34.85 59.72 41.82 111.56 36.35 112.13 21.46 58.96 34.85 59.72"/><polygon class="cls-4" points="28.81 59.91 35.98 87.62 39.37 111.19 28.81 59.91"/><polygon class="cls-3" points="34.85 59.72 42.01 81.21 20.9 103.46 17.5 98.37 30.32 79.14 21.46 58.96 34.85 59.72"/><path class="cls-8" d="M47.94,114.27H37l-.15-2.1,3.45-1S46,112,47.94,114.27Z"/><path class="cls-8" d="M20.86,110.1l-4.61-9.94,1.84-1,2.41,2.69S22.08,107.38,20.86,110.1Z"/><polygon class="cls-2" points="28.81 59.91 35.98 79.51 20.14 100.25 28.81 59.91"/><path class="cls-6" d="M21.46,59S25,35.78,26.18,35a12.64,12.64,0,0,0,2.45-2.64l5.27,1.7,2.27,26Z"/><path class="cls-6" d="M31.27,36.15l5.09,14.33,10.36-3.77L49,51.23,34.09,58s-.52.46-2.26-3-4.52-9.24-4.52-9.24Z"/><path class="cls-2" d="M28.25,48.6,32,56.7s.75,1.7,5.09,0S49,51.23,49,51.23Z"/><path class="cls-9" d="M34.55,24.67s.57,3.88.57,5.25-.34,2.85-1.83,2.85-1.48.35-1.94-.34S29.3,25.58,34.55,24.67Z"/><path class="cls-5" d="M28.62,30l2.85-3.76,2.28,8.21S30,36.24,28.63,33.2Z"/><path class="cls-8" d="M28.16,23.19s-1-1.37,2.05-1.37,4.11.11,4.68.8,1,1.25.57,2.16-1.82.92-1.82,1.94-.23,1.6-1,1.15-1.6-.35-1.26.68.23,2.85-1,2.74-2.4.11-2.86-2.85S26,24.33,28.16,23.19Z"/><circle class="cls-2" cx="94.13" cy="20.97" r="10.32" transform="translate(-0.86 37.62) rotate(-22.5)"/><path class="cls-2" d="M104.45,21h0A10.31,10.31,0,0,0,94.14,10.65V21Z"/><path class="cls-2" d="M104.45,21h0a10.32,10.32,0,0,0-18.23-6.63L93.71,21Z"/><path class="cls-2" d="M48.82,58.3h0Z"/><path class="cls-2" d="M55.23,58.3h0Z"/><path class="cls-2" d="M64.19,58.3h0Z"/><path class="cls-2" d="M71.44,58.3h0Z"/><path class="cls-2" d="M48.77,58.3a1.91,1.91,0,1,1-1.91-1.91A1.9,1.9,0,0,1,48.77,58.3Z"/><path class="cls-2" d="M71.47,58.3a1.91,1.91,0,1,1-1.91-1.91A1.9,1.9,0,0,1,71.47,58.3Z"/><rect class="cls-2" x="57.39" y="56.72" width="6.77" height="3.17"/><rect class="cls-2" x="73.6" y="56.72" width="3.17" height="3.17"/><rect class="cls-2" x="50.59" y="56.38" width="3.84" height="3.84" transform="translate(-25.85 54.22) rotate(-45.01)"/><polygon class="cls-2" points="57.45 62.95 52.47 62.95 52.47 61.1 57.45 62.95"/><polygon class="cls-2" points="57.45 53.65 52.47 53.65 52.47 55.51 57.45 53.65"/><polygon class="cls-2" points="64.36 62.95 69.7 62.95 69.7 60.14 64.36 62.95"/><polygon class="cls-2" points="64.36 53.65 69.7 53.65 69.7 56.47 64.36 53.65"/><rect class="cls-2" x="57.39" y="52.23" width="6.77" height="3.17"/><rect class="cls-2" x="57.39" y="61.2" width="6.77" height="3.17"/><path class="cls-2" d="M99.23,74.85h0Z"/><path class="cls-2" d="M99.23,70.32h0Z"/><path class="cls-2" d="M99.23,79.37h0Z"/><path class="cls-2" d="M99.23,83.9h0Z"/><path class="cls-10" d="M82.51,79.37a.58.58,0,0,1-1.15,0,.58.58,0,0,1,1.15,0Z"/><path class="cls-10" d="M85.9,74.89a.57.57,0,0,1-1.14,0,.57.57,0,0,1,1.14,0Z"/><path class="cls-10" d="M50.84,83.83a.58.58,0,1,1-.58-.58A.58.58,0,0,1,50.84,83.83Z"/><path class="cls-10" d="M59.23,74.82a.58.58,0,1,1-.58-.57A.58.58,0,0,1,59.23,74.82Z"/><path class="cls-10" d="M65.28,79.3a.57.57,0,1,1-1.14,0,.57.57,0,1,1,1.14,0Z"/><path class="cls-10" d="M71.6,70.37A.58.58,0,1,1,71,69.8.57.57,0,0,1,71.6,70.37Z"/><path class="cls-10" d="M77.21,74.94a.58.58,0,1,1-.58-.57A.58.58,0,0,1,77.21,74.94Z"/><path class="cls-2" d="M76.89,75.24l4.73,3.64Z"/><path class="cls-2" d="M50.91,83.44l7.42-8.13Z"/><path class="cls-2" d="M59,75.17,64.27,79Z"/><path class="cls-2" d="M65.22,78.91l5.55-8Z"/><path class="cls-2" d="M71.48,70.75l4.6,3.74Z"/><path class="cls-10" d="M95.77,70.36a.58.58,0,0,1-.57.57.57.57,0,0,1-.57-.57.56.56,0,0,1,.57-.57A.57.57,0,0,1,95.77,70.36Z"/><path class="cls-2" d="M82.3,79l2.75-3.6Z"/><path class="cls-2" d="M85.9,74.67l8.91-3.89Z"/><rect class="cls-11" x="81.79" y="48.29" width="31.22" height="27.37"/><rect class="cls-12" x="82.42" y="52.99" width="29.96" height="4.4"/><rect class="cls-12" x="82.42" y="61.86" width="29.96" height="4.4"/><rect class="cls-12" x="82.42" y="70.73" width="29.96" height="4.4"/><rect class="cls-13" x="81.79" y="48.29" width="31.22" height="4.36"/><path class="cls-13" d="M84.26,50.48h0Z"/><path class="cls-13" d="M105,50.48h0Z"/><path class="cls-13" d="M108.79,50.48h0Z"/><path class="cls-13" d="M84.26,55.18h0Z"/><path class="cls-13" d="M105,55.18h0Z"/><path class="cls-13" d="M108.79,55.18h0Z"/><path class="cls-13" d="M84.26,59.64h0Z"/><path class="cls-13" d="M105,59.64h0Z"/><path class="cls-13" d="M108.79,59.64h0Z"/><path class="cls-13" d="M84.26,64.1h0Z"/><path class="cls-13" d="M105,64.1h0Z"/><path class="cls-13" d="M108.79,64.1h0Z"/><path class="cls-13" d="M84.26,68.56h0Z"/><path class="cls-13" d="M105,68.56h0Z"/><path class="cls-13" d="M108.79,68.56h0Z"/><path class="cls-13" d="M84.26,73h0Z"/><path class="cls-13" d="M105,73h0Z"/><path class="cls-13" d="M108.79,73h0Z"/><path class="cls-9" d="M114.2,58.87,104.37,53s-1.7.36-.76,1.31,7,6.41,7,6.41S116.35,62.44,114.2,58.87Z"/><path class="cls-9" d="M104.73,54.78s-1.87-.48-2.81-.67a14.91,14.91,0,0,1-3.85-1.52l-.37-.38,2.39.67-.84-.71a12,12,0,0,1-1.59-.52.94.94,0,0,1-.28-.38c-.24-.47.05-.56.05-.56l1.78.34,1.31.52-.79-.85a8.66,8.66,0,0,1-1.65-.34c-.14-.14,0-.47,0-.47l2.11.34,2,1.37s.14-.28-.28-.61a1.33,1.33,0,0,1-.61-.89c0-.24,1.22.66,1.41.89s1.36.62,1.68,1.66A11.29,11.29,0,0,1,104.73,54.78Z"/><path class="cls-9" d="M114.2,58.87,104.37,53s-1.7.36-.76,1.31,7,6.41,7,6.41S116.35,62.44,114.2,58.87Z"/><path class="cls-9" d="M126.32,41.44s-1.32,2.09-2.77,2.2-2.17-3.3-2.17-5.61,2.53-4.51,2.77-5.17,2.77,1.54,2.77,3.52A49.19,49.19,0,0,1,126.32,41.44Z"/><path class="cls-14" d="M135.22,113.43s.12,1.22.12,1.6-.81,1.44-.87,1.75l-.07.32h6.14s.13-.63-.88-1.44a3.22,3.22,0,0,1-1.44-2.42C138.1,112.21,135.22,113.43,135.22,113.43Z"/><path class="cls-14" d="M124.48,113.59l.62,3.38h-9.58a1.39,1.39,0,0,1,1.07-1.38c1.12-.31,4.19-1.25,5-2.25S124.48,113.59,124.48,113.59Z"/><path class="cls-15" d="M135.47,113.34l-9.39-33.72L124.67,65v-.84l5.35.09a13.41,13.41,0,0,1,3.29,8.45c-.09,4.8-.28,15.6.47,17.66s2.73,5.55,2.91,7.71,1.13,15.12,1.13,15.12Z"/><path class="cls-6" d="M119,64.3s-1.87,3.2-1.4,8.83,4.13,40,4.13,40l2.82.09s.94-13.15.56-16.34-1.41-6.48-1.32-7,5.81-16.6,4.8-19.45c-.52-1.46-2.26-6.11-2.54-6.2S119,64.3,119,64.3Z"/><path class="cls-2" d="M119.32,66.18s-.19,18.51.94,23.49,2.25,19.16,2.25,21.23Z"/><path class="cls-16" d="M131.72,47s2.34,1.88.46,7.42-2.63,8.55-3,8.64-2.35.47-3-.28-1.22-1.41-1.12-1.88,2.21-12.41,2.44-13.52C128,45.14,131.06,46.74,131.72,47Z"/><path class="cls-7" d="M120.07,47.49l2.72-1.41,5.07-.09a5.24,5.24,0,0,1,3.76,2.82c.39.84-.56,13-.66,14.74s1.47,2.68,1.17,3.57c-1.71,5-14.7,1.43-14.7,1.43S118.19,49,120.07,47.49Z"/><path class="cls-16" d="M122.37,47.28s1.45,2.63-2.4,7-5.69,6.89-6.08,6.84-2.35-.46-2.67-1.41-.59-1.77-.32-2.17,7.52-8.37,8.35-9.15S121.87,46.77,122.37,47.28Z"/><path class="cls-5" d="M128.52,41l-.37,5.07s.19.71-1.41.85a4.25,4.25,0,0,1-3.1-.66,11.61,11.61,0,0,0,1-5.54C124.48,37.53,128.52,41,128.52,41Z"/><path class="cls-15" d="M124.76,31.52a6.92,6.92,0,0,1,5.45,1.41c1.6,1.22,2.54,3.38,1.69,5.17s-2.72,4.13-3.66,4.13a6.12,6.12,0,0,1-3.29-2,6.93,6.93,0,0,1-.47-2.16c-.19-1.22-.84-.85-.84-.57s-.38,1.13-.57.57S119,33.49,124.76,31.52Z"/><path class="cls-15" d="M126.64,31.8a4.09,4.09,0,1,0,4.09-3.94A4,4,0,0,0,126.64,31.8Z"/></g></g></svg>